Patient4_TMGait_0pt8_01_right_30_EMG.mot
version=1
nRows=13
nColumns=33
inDegrees=no
endheader
time	1LAddLong	2LGlutMax	3LGlutMed	4LIliopsoas	5LSemiMemb	6LBicFemLong	7LRecFem	8LVastMed	9LVastLat	10LGasMed	11LTibAnt	12lTibPost	13LPeroneusLong	14LSol	15LExtDigLong	16LFlexDigLong	17RAddLong	18RGlutMax	19RGlutMed	20RIliopsoas	21RSemiMemb	22RBicFemLong	23RRecFem	24RVastMed	25RVastLat	26RGasMed	27RTibAnt	28RTibPost	29RPeroneusLong	30RSol	31RExtDigLong	32RFlexDigLong
34.718	0.004883	-0.085144	-0.037689	0.009613	0.028992	-0.10132	0.27405	0.003052	0.051575	0.20355	-0.007782	-0.02182	-0.21057	-0.082092	-0.066071	0.25757	-0.001678	-0.054626	-0.094604	0.11765	-0.058441	0.10773	0.001373	-0.061798	0.023804	0.041656	0.046234	0.016479	0.03479	0.016479	0.001373	-0.019531
34.719	0.002594	-0.065155	-0.081635	0.010834	0.034332	-0.057678	0.31143	0.004578	0.037537	-0.02655	-0.006866	-0.016479	-0.16434	-0.13306	0.014954	-0.005951	-0.004425	-0.093689	0.016632	0.043182	-0.086365	0.03952	-0.005035	-0.063629	0.029907	0.017853	0.064697	-0.004425	0.12848	-0.006866	-0.004272	-0.00946
34.72	0.003662	-0.063019	-0.16464	0.010223	0.032654	0.057983	0.31021	0.028992	0.005035	-0.27924	-0.010681	-0.025177	-0.050049	-0.19424	0.037384	-0.1355	0.001068	-0.030365	0.17548	0.043945	-0.085754	0.045471	0.022736	-0.07019	0.034485	0.010376	-0.27634	0.017548	0.16724	-0.080261	0.001068	-0.006409
34.721	-0.011139	-0.072632	-0.09903	0.014038	0.022888	0.079651	0.33661	0.002899	-0.00473	-0.6369	-0.019226	-0.013275	0.099792	-0.19608	0.013885	-0.034332	0.004578	-0.007477	0.36926	-0.009766	-0.099182	0.085754	0.036011	-0.11551	0.023804	-0.001678	-0.34485	0.029907	0.11688	-0.12436	-0.001068	-0.005188
34.722	-0.008698	-0.071564	0.017548	0.027161	0.019684	0.051422	0.35019	0.014191	-0.00061	-0.4628	-0.010529	-0.007935	0.11887	0.037689	0.048523	-0.008087	0.011749	-0.053406	0.38376	-0.02182	-0.10239	0.097656	0.084381	-0.11475	0.018463	-0.002594	-0.097504	-0.008392	0.05249	-0.031586	-0.00061	-0.013428
34.723	-0.002594	-0.08194	0.016174	0.026855	0.013275	0.10101	0.3421	0.019684	0.006714	-0.2243	0.000458	-0.021667	0.12543	0.030823	-0.01236	-0.009613	0.007019	0.002899	0.23148	-0.054932	-0.033722	0.037994	0.13153	-0.12787	0.03067	-0.007782	-0.062561	-0.020447	-0.061188	0.066376	0.000153	-0.013885
34.724	-0.004578	-0.056305	0.037689	0.013885	0.017548	0.078583	0.35523	0.017395	0.008392	-0.18433	0.012512	0.006256	0.55298	0.21973	0.13489	0.015259	0.008087	-0.003052	0.31433	-0.10819	0.033264	0.003662	0.091248	-0.097198	0.020142	-0.009308	-0.083466	-0.014648	-0.038452	0.099487	-0.002899	-0.006714
34.725	0.004272	-0.066986	-0.007629	-0.010376	0.009003	0.070953	0.31158	0.021667	0.039978	0.097504	-0.018463	0.003662	0.32044	0.13977	0.09201	0.000916	0.019531	-0.014343	0.43396	-0.059967	-0.027771	-0.042114	0.112	-0.10452	0.00351	-0.007477	-0.11719	-0.008392	-0.042419	0.10498	0.000153	-0.027008
34.726	-0.007172	-0.049591	-0.049438	-0.021973	0.01297	0.036163	0.38345	0.021667	0.071411	0.13397	0.005188	0.072174	-0.19852	-0.051575	-0.003815	-0.032043	0.013275	-0.10284	0.51498	-0.066833	-0.094147	-0.081024	0.11185	-0.12238	0.009308	-0.010681	-0.1091	-0.007477	0.044098	0.010071	-0.001678	-0.0383
34.727	-0.001373	-0.05722	-0.044403	0.001068	0.028992	-0.017242	0.4715	0.014954	0.063782	-0.030823	0.030975	-0.08255	-0.44479	0.010071	0.002289	-0.013428	0.022888	-0.08667	0.21286	-0.071259	-0.095978	-0.08606	0.086823	-0.094147	0.009613	-0.006561	-0.17059	-0.000763	0.004578	-0.041962	-0.00061	-0.056763
34.728	0.003052	-0.047455	0.062866	-0.002441	0.015717	-0.008392	0.53787	0.014191	0.040741	0.073242	0.031433	-0.050201	-0.11719	-0.051422	0.037384	-0.015259	0.054016	-0.062408	0.043945	-0.02182	0.017242	-0.13809	0.069427	-0.084076	0.016937	-0.010376	0.08606	-0.002136	-0.000458	-0.011597	0.000916	-0.1149
34.729	-0.01297	-0.037384	0.016937	0.006714	-0.01236	-0.010223	0.53482	0.014496	-0.11261	-0.027008	0.047455	-0.045166	-0.42114	-0.13412	-0.00885	0.046387	0.095062	-0.04303	0.02121	-0.011444	0.028992	-0.23346	-0.002747	-0.16052	0.005341	-0.010071	0.22598	-0.00885	-0.016937	-0.013733	0.001984	-0.14511
34.73	-0.002594	-0.024414	0.072632	-0.004272	-0.00061	0.008698	0.44022	0.026855	-0.098114	-0.20386	0.046844	-0.028534	-0.12909	-0.1358	0.012817	0.050507	0.13748	-0.06485	-0.14206	0.027008	-0.018768	-0.31464	-0.031891	-0.15243	0.00473	-0.012665	0.3093	-0.011139	0.28412	0.009918	-0.001373	-0.21866
